<svg width="45" height="58" viewBox="0 0 45 58" fill="none" xmlns="http://www.w3.org/2000/svg">
<g clip-path="url(#clip0)">
<path d="M27 39C25.26 39 23.59 39.81 22.5 41.09C21.41 39.81 19.74 39 18 39C14.92 39 12.5 41.42 12.5 44.5C12.5 48.28 15.9 51.36 21.05 56.04L22.5 57.35L23.95 56.03C29.1 51.36 32.5 48.28 32.5 44.5C32.5 41.42 30.08 39 27 39ZM22.6 54.55L22.5 54.65L22.4 54.55C17.64 50.24 14.5 47.39 14.5 44.5C14.5 42.5 16 41 18 41C19.54 41 21.04 41.99 21.57 43.36H23.44C23.96 41.99 25.46 41 27 41C29 41 30.5 42.5 30.5 44.5C30.5 47.39 27.36 50.24 22.6 54.55Z" fill="black"/>
</g>
<defs>
<clipPath id="clip0">
<rect width="44" height="57" fill="white" transform="translate(0.5 0.174988)"/>
</clipPath>
</defs>
</svg>
